HIERARCHY
ROOT ui
{
	 OFFSET 0 0 0
	 CHANNELS 3 XPosition YPosition Z Position
	 EndSite
	 {
	 OFFSET 0 -1 0
	 }
}
ROOT li
{
	 OFFSET 0 0 0
	 CHANNELS 3 XPosition YPosition Z Position
	 EndSite
	 {
	 OFFSET 0 -1 0
	 }
}
ROOT ul
{
	 OFFSET 0 0 0
	 CHANNELS 3 XPosition YPosition Z Position
	 EndSite
	 {
	 OFFSET 0 -1 0
	 }
}
ROOT ll
{
	 OFFSET 0 0 0
	 CHANNELS 3 XPosition YPosition Z Position
	 EndSite
	 {
	 OFFSET 0 -1 0
	 }
}
ROOT tt
{
	 OFFSET 0 0 0
	 CHANNELS 3 XPosition YPosition Z Position
	 EndSite
	 {
	 OFFSET 0 -1 0
	 }
}
ROOT tb
{
	 OFFSET 0 0 0
	 CHANNELS 3 XPosition YPosition Z Position
	 EndSite
	 {
	 OFFSET 0 -1 0
	 }
}
ROOT td
{
	 OFFSET 0 0 0
	 CHANNELS 3 XPosition YPosition Z Position
	 EndSite
	 {
	 OFFSET 0 -1 0
	 }
}
ROOT v
{
	 OFFSET 0 0 0
	 CHANNELS 3 XPosition YPosition Z Position
	 EndSite
	 {
	 OFFSET 0 -1 0
	 }
}
ROOT bn
{
	 OFFSET 0 0 0
	 CHANNELS 3 XPosition YPosition Z Position
	 EndSite
	 {
	 OFFSET 0 -1 0
	 }
}
MOTION
Frames: 19
Frame Time: 0.002
0.009682570457458496	-0.002346252918243408	0		0.438437255859375	-2.375815673828125	0		-0.8163685913085937	0.32286825561523436	0		-0.6827481079101563	-2.4649921875	0		1.67705517578125	-0.6309619750976563	0		3.310681884765625	-0.42809814453125	0		4.52520458984375	-0.2310648956298828	0		6.001271484375	0.413776123046875	0		-0.06283605194091797	5.95500146484375	0		
-0.020343807220458983	-0.004975912094116211	0		0.4536512451171875	-2.3749619140625	0		-0.8204358520507813	0.318852294921875	0		-0.6565031127929688	-2.462365234375	0		1.6522025146484376	-0.623516845703125	0		3.304700927734375	-0.4297511291503906	0		4.52398681640625	-0.2506781463623047	0		5.99714794921875	0.40631985473632815	0		-0.09358403778076171	5.9333671875	0		
-0.036268821716308595	-0.00284446907043457	0		0.42791998291015626	-2.372670166015625	0		-0.819412841796875	0.3187117919921875	0		-0.6582777099609375	-2.464455810546875	0		1.679215087890625	-0.6307719116210937	0		3.3006025390625	-0.4444936828613281	0		4.51691064453125	-0.26228512573242185	0		6.0032607421875	0.4146731262207031	0		-0.12708876800537108	5.9277001953125	0		
-0.008195723533630371	-0.0033081281185150147	0		0.45818344116210935	-2.37312060546875	0		-0.8183636474609375	0.31851165771484374	0		-0.6909417724609375	-2.459232177734375	0		1.657475341796875	-0.619493896484375	0		3.319929443359375	-0.42658157348632814	0		4.5229091796875	-0.2701161499023437	0		6.00430224609375	0.4150214538574219	0		-0.12649047088623047	5.9275556640625	0		
0.009869647979736327	-0.005704248905181885	0		0.4454508361816406	-2.374107421875	0		-0.8122507934570312	0.322195068359375	0		-0.6876326904296876	-2.45750244140625	0		1.6687462158203126	-0.6086748657226563	0		3.325837158203125	-0.4445686950683594	0		4.516865234375	-0.2828641662597656	0		6.0014560546875	0.423353271484375	0		-0.07666909790039063	5.9437646484375	0		
0.0010764689445495604	0.00317101788520813	0		0.46682891845703123	-2.36655615234375	0		-0.806225830078125	0.3178279113769531	0		-0.6843184204101562	-2.455824462890625	0		1.6670115966796875	-0.59875341796875	0		3.336945556640625	-0.44667184448242186	0		4.52184228515625	-0.29480178833007814	0		6.00642529296875	0.41553152465820314	0		-0.09116616821289063	5.9326943359375	0		
0.002174798011779785	0.002878967046737671	0		0.4391129150390625	-2.36646826171875	0		-0.8101041259765625	0.32153228759765623	0		-0.62202197265625	-2.45589306640625	0		1.7011661376953124	-0.5983076782226563	0		3.315056640625	-0.44843255615234373	0		4.50991748046875	-0.29858908081054686	0		6.0025869140625	0.42376358032226563	0		0.042736019134521484	5.95381640625	0		
-0.003816746950149536	-0.004373110771179199	0		0.4653243408203125	-2.37206396484375	0		-0.8140848999023438	0.31719418334960936	0		-0.696702392578125	-2.452380859375	0		1.6613172607421876	-0.597029541015625	0		3.316181640625	-0.44851361083984376	0		4.52079443359375	-0.3186949768066406	0		6.00364501953125	0.4238885498046875	0		-0.12394800567626953	5.92745361328125	0		
-0.021658548355102537	0.0024749898910522462	0		0.44163796997070315	-2.367110107421875	0		-0.8780297241210937	0.31752011108398437	0		-0.621506591796875	-2.458672607421875	0		1.677494384765625	-0.5924537963867188	0		3.332171875	-0.4588121337890625	0		4.49482470703125	-0.324411376953125	0		6.00178173828125	0.43200198364257814	0		-0.12333172607421874	5.92607080078125	0		
0.015286002159118652	-0.007351704120635986	0		0.4489447021484375	-2.360554931640625	0		-0.8679087524414062	0.3249434204101562	0		-0.6871416015625	-2.4473466796875	0		1.66774169921875	-0.5796104736328125	0		3.34544287109375	-0.4431149597167969	0		4.5078994140625	-0.32462774658203125	0		6.01080126953125	0.43194287109375	0		-0.09047314453125	5.94628125	0		
-0.012502805709838867	0.008548287391662598	0		0.44326406860351564	-2.3498779296875	0		-0.7919130859375	0.32357937622070315	0		-0.6588877563476563	-2.443143310546875	0		1.6869095458984376	-0.5711358032226562	0		3.315361572265625	-0.4549530334472656	0		4.50487744140625	-0.3306956481933594	0		6.00688671875	0.43999252319335935	0		-0.08902278900146485	5.93282861328125	0		
0.007405957221984863	8.712409734725952E-4	0		0.43347430419921873	-2.345179931640625	0		-0.8699849853515625	0.3199748840332031	0		-0.7096569213867188	-2.437049560546875	0		1.6679410400390624	-0.5712486572265625	0		3.345312744140625	-0.46151702880859374	0		4.5097529296875	-0.34289041137695314	0		6.011755859375	0.431900390625	0		-0.08843829345703125	5.9323642578125	0		
-0.017638362884521485	6.92238986492157E-4	0		0.44146749877929686	-2.355707275390625	0		-0.7991021728515625	0.3146416931152344	0		-0.6366276245117187	-2.445394775390625	0		1.6750235595703125	-0.5636848754882813	0		3.32327587890625	-0.46351119995117185	0		4.5005703125	-0.35695596313476563	0		6.01268115234375	0.43181820678710936	0		-0.08886194610595703	5.93289306640625	0		
-0.01672443389892578	2.0056700706481934E-4	0		0.4425284118652344	-2.35617041015625	0		-0.8641126708984375	0.3228507690429688	0		-0.7094995727539063	-2.44008447265625	0		1.6559739990234374	-0.5638436889648437	0		3.347239990234375	-0.46205596923828124	0		4.5074150390625	-0.36523345947265623	0		6.00656884765625	0.4317822265625	0		-0.122384033203125	5.92678369140625	0		
-0.012805944442749023	0.0036647489070892334	0		0.44556317138671875	-2.354667724609375	0		-0.8582133178710938	0.326242431640625	0		-0.7064598388671876	-2.43864990234375	0		1.653993896484375	-0.5542135009765625	0		3.2921328125	-0.462726318359375	0		4.50831005859375	-0.36546859741210935	0		6.01541650390625	0.43154498291015625	0		-0.12185971832275391	5.92627587890625	0		
-0.01197004508972168	0.003156848907470703	0		0.4485632934570313	-2.3521728515625	0		-0.8523505859375	0.32963119506835936	0		-0.7054886474609375	-2.439196044921875	0		1.669916015625	-0.5497981567382813	0		3.330048583984375	-0.45846771240234374	0		4.50509912109375	-0.37168072509765626	0		6.00742041015625	0.44847113037109376	0		-0.08827517700195313	5.932390625	0		
0.011788507461547852	-0.0016117559671401977	0		0.4665229797363281	-2.349850830078125	0		-0.7816119995117188	0.32429266357421876	0		-0.635662109375	-2.449515380859375	0		1.6627835693359374	-0.5471326904296875	0		3.325698486328125	-0.4747484130859375	0		4.5028564453125	-0.3779233703613281	0		6.01210107421875	0.43922833251953125	0		-0.08876719665527344	5.93288623046875	0		
-0.010383768081665039	0.002133354902267456	0		0.4394430236816406	-2.348027587890625	0		-0.8558414916992187	0.3245791320800781	0		-0.6747810668945312	-2.451612060546875	0		1.69863427734375	-0.543953857421875	0		3.3005380859375	-0.4718084716796875	0		4.49958984375	-0.3841708679199219	0		6.00486181640625	0.4390985107421875	0		-0.08926313018798829	5.93338134765625	0		
0.013336716651916504	-0.0026324479579925538	0		0.44720480346679686	-2.358594970703125	0		-0.85508984375	0.32402996826171876	0		-0.713900634765625	-2.451708740234375	0		1.638451416015625	-0.5417095947265625	0		3.29430419921875	-0.4740906677246094	0		4.49428515625	-0.39240921020507813	0		6.00560791015625	0.43886154174804687	0		-0.12184239959716797	5.92623388671875	0		
